<?xml version="1.0" encoding="UTF-8" standalone="no"?>
<svg
   xmlns:dc="http://purl.org/dc/elements/1.1/"
   xmlns:cc="http://creativecommons.org/ns#"
   xmlns:rdf="http://www.w3.org/1999/02/22-rdf-syntax-ns#"
   xmlns:svg="http://www.w3.org/2000/svg"
   xmlns="http://www.w3.org/2000/svg"
   viewBox="0 0 179.25333 193.93333"
   height="193.93333"
   width="179.25333"
   xml:space="preserve"
   id="svg2"
   version="1.1"><metadata
     id="metadata8"><rdf:RDF><cc:Work
         rdf:about=""><dc:format>image/svg+xml</dc:format><dc:type
           rdf:resource="http://purl.org/dc/dcmitype/StillImage" /></cc:Work></rdf:RDF></metadata><defs
     id="defs6" /><g
     transform="matrix(1.3333333,0,0,-1.3333333,0,193.93333)"
     id="g10"><g
       transform="scale(0.1)"
       id="g12"><path
         id="path14"
         style="fill:#54305e;fill-opacity:1;fill-rule:nonzero;stroke:none"
         d="M 43.6211,2.76953 H 4.84375 V 186.922 H 43.6211 Z M 7.27344,223.609 C 2.42969,228.461 0,234.219 0,240.922 c 0,6.687 2.42969,12.457 7.27344,17.308 4.84376,4.84 10.60936,7.27 17.30076,7.27 6.6914,0 12.461,-2.43 17.3164,-7.27 4.8438,-4.851 7.2617,-10.621 7.2617,-17.308 0,-6.703 -2.4179,-12.461 -7.2617,-17.313 -4.8554,-4.847 -10.625,-7.257 -17.3164,-7.257 -6.6914,0 -12.457,2.41 -17.30076,7.257" /><path
         id="path16"
         style="fill:#54305e;fill-opacity:1;fill-rule:nonzero;stroke:none"
         d="m 192.289,212.879 c -11.891,0 -21.633,-2.418 -29.25,-7.258 -7.613,-4.851 -11.43,-12.18 -11.43,-21.992 0,-9.809 3.817,-17.301 11.43,-22.488 7.617,-5.2 23.824,-10.801 48.641,-16.789 24.797,-6.012 43.488,-14.43 56.066,-25.282 12.578,-10.84 18.871,-26.8083 18.871,-47.9294 0,-21.1211 -7.969,-38.25 -23.887,-51.4101 C 246.813,6.57031 225.918,0 200.074,0 162.223,0 128.645,13.0391 99.3438,39.1211 l 25.6212,30.8008 c 24.457,-21.2305 49.836,-31.8399 76.152,-31.8399 13.149,0 23.586,2.8164 31.321,8.4766 7.734,5.6523 11.601,13.1523 11.601,22.4922 0,9.3476 -3.641,16.6211 -10.898,21.8203 -7.274,5.1875 -19.801,9.9099 -37.567,14.1879 -17.777,4.261 -31.265,8.179 -40.492,11.773 -9.238,3.559 -17.434,8.246 -24.59,14.02 -14.304,10.828 -21.461,27.449 -21.461,49.839 0,22.379 8.145,39.629 24.407,51.75 16.273,12.11 36.402,18.168 60.41,18.168 15.453,0 30.804,-2.527 46.035,-7.609 15.23,-5.09 28.39,-12.238 39.465,-21.469 L 257.543,190.73 c -7.168,6.45 -16.855,11.77 -29.078,15.918 -12.235,4.153 -24.297,6.231 -36.176,6.231" /><path
         id="path18"
         style="fill:#54305e;fill-opacity:1;fill-rule:nonzero;stroke:none"
         d="M 350.988,2.76953 V 244.719 h 40.848 V 139.852 h 120.109 v 104.867 h 40.848 V 2.76953 H 511.945 V 101.77 H 391.836 V 2.76953 h -40.848" /><path
         id="path20"
         style="fill:#54305e;fill-opacity:1;fill-rule:nonzero;stroke:none"
         d="M 772.602,95.5391 728.637,195.23 684.672,95.5391 Z M 668.055,57.8086 643.836,2.76953 H 600.215 L 706.832,244.719 h 43.609 L 857.059,2.76953 H 813.438 L 789.219,57.8086 H 668.055" /><path
         id="path22"
         style="fill:#54305e;fill-opacity:1;fill-rule:nonzero;stroke:none"
         d="m 1043.29,131.879 c 8.3,7.152 12.46,18.633 12.46,34.449 0,15.793 -4.28,26.641 -12.8,32.531 -8.56,5.891 -23.77,8.832 -45.696,8.832 h -51.926 v -86.543 h 50.883 c 23.069,0 38.759,3.571 47.079,10.731 z m 54.34,34.269 c 0,-39.918 -17.42,-65.078 -52.27,-75.4488 l 63.35,-87.92967 h -51.92 L 998.98,84.1094 H 945.328 V 2.76953 H 904.48 V 244.719 h 90 c 36.92,0 63.34,-6.231 79.27,-18.68 15.92,-12.461 23.88,-32.43 23.88,-59.891" /><path
         id="path24"
         style="fill:#54305e;fill-opacity:1;fill-rule:nonzero;stroke:none"
         d="m 1340.28,244.719 v -38.418 h -129.11 v -64.039 h 115.97 v -36.34 H 1211.17 V 41.1914 h 133.27 V 2.76953 H 1170.33 V 244.719 h 169.95" /><path
         id="path26"
         style="fill:#231f20;fill-opacity:1;fill-rule:nonzero;stroke:none"
         d="m 329.957,628.328 c 0.106,-0.105 0.215,-0.199 0.316,-0.305 -0.23,0.239 -0.46,0.469 -0.695,0.7 0.133,-0.129 0.25,-0.266 0.379,-0.395" /><path
         id="path28"
         style="fill:#231f20;fill-opacity:1;fill-rule:nonzero;stroke:none"
         d="m 1014.48,1312.85 c -0.12,0.13 -0.25,0.24 -0.37,0.36 0.22,-0.22 0.44,-0.44 0.66,-0.66 -0.1,0.1 -0.19,0.2 -0.29,0.3" /><path
         id="path30"
         style="fill:#f04b52;fill-opacity:1;fill-rule:nonzero;stroke:none"
         d="m 261.098,744.992 c 7.613,8.492 8.082,26.824 1.468,45.496 -4.394,12.395 -3.699,24.785 2.028,33.032 0.73,1.043 1.465,2.093 2.211,3.148 5.832,8.309 16.066,11.289 27.031,7.066 16.363,-6.328 34.477,-1.964 46.023,15.336 13.336,19.793 12.2,51.813 -3.218,73.953 -20.188,29.02 -53.266,30.368 -70.348,7.043 -10.551,-14.273 -12.93,-34.082 -8.176,-52.461 3.449,-13.324 1.629,-26.718 -4.074,-35.066 -0.727,-1.07 -1.441,-2.133 -2.152,-3.187 -5.594,-8.293 -14.282,-10.719 -23.086,-6.454 -7.942,3.836 -15.352,4.008 -20.926,0.79 9.355,-31.833 22.117,-62.864 38.144,-92.606 5.86,-1.445 11.129,-0.434 15.075,3.91" /><path
         id="path32"
         style="fill:#f04b52;fill-opacity:1;fill-rule:nonzero;stroke:none"
         d="m 224.906,870.281 c 15.172,18.059 14.297,57.449 -2.121,80.832 -9.937,14.328 -22.66,18.946 -33.285,14.817 -0.398,-0.157 -0.797,-0.211 -1.191,-0.325 0.351,-34.457 4.39,-68.863 12.054,-102.628 8.739,-3.09 17.617,-1.036 24.543,7.304" /><path
         id="path34"
         style="fill:#f3655c;fill-opacity:1;fill-rule:nonzero;stroke:none"
         d="m 233.852,1006.23 c 12.789,14.65 18.812,37.31 17.031,56.68 -1.164,12.93 3.285,26.67 11.418,36.84 1.035,1.3 2.078,2.59 3.121,3.88 8.223,10.16 19.238,15.53 29.473,13.63 15.312,-2.92 34.804,5.19 49.191,23.98 16.641,21.59 19.867,50.8 8.926,67.17 -14.473,21.38 -43.145,15.39 -63.809,-7.99 -12.742,-14.44 -19.894,-32.43 -19.789,-48.53 0.121,-11.63 -4.906,-25.23 -12.98,-35.25 -1.028,-1.28 -2.051,-2.55 -3.071,-3.83 -7.988,-10.04 -18,-15.24 -25.972,-13.54 -7.743,1.61 -16.125,-1.23 -23.856,-7.87 -7.394,-28.81 -12.066,-58.15 -14.082,-87.65 11.024,-14.434 29.805,-14.281 44.399,2.48" /><path
         id="path36"
         style="fill:#c73354;fill-opacity:1;fill-rule:nonzero;stroke:none"
         d="m 381.723,607.086 c 7.808,9.066 2.82,31.258 -14,50.328 -21.93,25.137 -51.993,32.875 -60.961,20.914 -5.422,-6.933 -2.742,-18.269 4.461,-30.117 5.918,-6.613 12.011,-13.125 18.355,-19.488 0.235,-0.231 0.465,-0.461 0.695,-0.7 6.332,-6.316 12.817,-12.39 19.399,-18.285 13.008,-7.937 25.484,-10.402 32.051,-2.652" /><path
         id="path38"
         style="fill:#a62c5a;fill-opacity:1;fill-rule:nonzero;stroke:none"
         d="m 722.539,663.375 c -14.434,-3.375 -29.512,0.43 -40.051,9.703 -1.34,1.184 -2.683,2.367 -4.031,3.559 -10.547,9.328 -15.375,23.191 -11.848,36.703 4.899,18.625 -0.605,39.863 -16.906,55.348 -26.652,25.468 -71.027,24.222 -93.414,-3.305 -17.203,-21.055 -15.32,-51.153 3.27,-71.68 16.199,-17.879 40.089,-24.887 61.773,-20.851 14.461,2.718 29.914,-1.5 40.527,-10.793 1.344,-1.176 2.696,-2.356 4.036,-3.524 10.585,-9.203 14.921,-22.144 11.523,-34.055 -5.121,-17.878 1.805,-36.5 19.707,-47.605 20.672,-12.777 50.367,-11.297 71.797,3.051 27.867,18.64 32.914,51.484 9.535,71.812 -14.301,12.328 -35.906,16.321 -55.918,11.637" /><path
         id="path40"
         style="fill:#c73354;fill-opacity:1;fill-rule:nonzero;stroke:none"
         d="m 432.344,677.633 c -12.031,-1.16 -25.137,4.523 -35.043,14.387 -1.266,1.261 -2.528,2.519 -3.785,3.785 -9.852,9.898 -15.543,23.011 -14.383,35.043 1.672,16.597 -5.012,36.886 -19.36,52.386 -23.519,25.52 -56.457,26.637 -68.48,4.254 -9.344,-17.148 -3.484,-42.711 12.199,-62.32 13.707,-17.055 31.199,-26.277 46.508,-25.527 10.16,0.586 22.691,-5.102 32.473,-14.938 1.246,-1.246 2.492,-2.492 3.73,-3.73 9.82,-9.762 15.508,-22.309 14.942,-32.481 -0.743,-15.324 8.46,-32.789 25.523,-46.512 19.605,-15.687 45.172,-21.558 62.32,-12.207 22.371,12.036 21.258,44.977 -4.265,68.5 -15.485,14.336 -35.778,21.024 -52.379,19.36" /><path
         id="path42"
         style="fill:#c73354;fill-opacity:1;fill-rule:nonzero;stroke:none"
         d="m 512.594,764.926 c -4.047,14.129 -0.285,28.89 9.957,39.047 1.304,1.289 2.597,2.586 3.91,3.882 10.258,10.223 25.758,14.426 40.789,10.625 22.539,-5.687 47.508,0.93 63.84,20.543 18.781,22.528 18.992,56.594 0.062,80.165 -24.726,30.839 -69.5,32.593 -95.449,5.992 -15.926,-16.258 -20.961,-38.992 -15.683,-59.621 3.839,-14.957 -0.516,-30.375 -10.68,-40.586 -1.297,-1.305 -2.59,-2.606 -3.875,-3.907 -10.11,-10.187 -24.813,-14.089 -38.848,-10.019 -19.453,5.648 -39.715,1.316 -52.719,-12.559 -21.16,-22.836 -15.269,-60.707 12.106,-83.531 21.062,-17.527 50.055,-20.59 69.789,-6.055 17.09,12.645 22.887,34.789 16.801,56.024" /><path
         id="path44"
         style="fill:#f04b52;fill-opacity:1;fill-rule:nonzero;stroke:none"
         d="m 466.871,854.801 c 27.535,22.383 28.758,66.793 3.309,93.418 -15.496,16.308 -36.707,21.789 -55.34,16.902 -13.504,-3.527 -27.363,1.297 -36.695,11.844 -1.196,1.351 -2.383,2.695 -3.563,4.035 -9.281,10.539 -13.059,25.6 -9.695,40.05 4.699,19.99 0.695,41.6 -11.629,55.91 -20.344,23.39 -53.149,18.31 -71.793,-9.55 -14.336,-21.43 -15.832,-51.11 -3.059,-71.785 11.11,-17.91 29.707,-24.816 47.59,-19.699 11.891,3.422 24.832,-0.922 34.047,-11.52 1.172,-1.343 2.348,-2.691 3.523,-4.039 9.274,-10.594 13.508,-26.066 10.789,-40.523 -4.023,-21.692 2.961,-45.559 20.848,-61.774 20.531,-18.601 50.613,-20.468 71.668,-3.269" /><path
         id="path46"
         style="fill:#812656;fill-opacity:1;fill-rule:nonzero;stroke:none"
         d="m 652.617,521.246 c -23.387,16.422 -62.785,17.309 -80.836,2.125 -8.371,-6.937 -10.418,-15.848 -7.289,-24.609 33.754,-7.676 68.153,-11.719 102.602,-12.082 0.121,0.422 0.183,0.84 0.344,1.261 4.14,10.629 -0.5,23.372 -14.821,33.305" /><path
         id="path48"
         style="fill:#812656;fill-opacity:1;fill-rule:nonzero;stroke:none"
         d="m 800.824,525.711 c -1.679,8.027 3.438,18.047 13.508,26.09 1.277,1.019 2.555,2.043 3.832,3.074 10.074,8.109 23.699,13.078 35.418,12.977 17.59,-0.055 37.398,8.484 52.387,23.566 17.136,17.324 22.633,39.395 10.933,53.836 -15.105,18.883 -53.297,16.469 -78.777,-6.539 -15.555,-13.945 -22.047,-31.496 -19.324,-45.504 1.933,-10.176 -3.555,-21.148 -13.653,-29.344 -1.296,-1.039 -2.582,-2.082 -3.875,-3.117 -10.117,-8.105 -23.855,-12.578 -36.668,-11.43 -17.718,1.645 -38.292,-3.172 -52.89,-13.847 -20.719,-15.149 -22.004,-35.664 -6.391,-47.653 29.477,2.008 58.793,6.668 87.574,14.051 6.661,7.715 9.485,16.094 7.926,23.84" /><path
         id="path50"
         style="fill:#a62c5a;fill-opacity:1;fill-rule:nonzero;stroke:none"
         d="m 534.457,527.148 c -4.227,8.832 -1.953,17.598 6.387,23.215 1.054,0.715 2.117,1.434 3.191,2.157 8.403,5.722 21.84,7.476 35.254,4.027 20.051,-5.137 41.82,-1.797 56.156,11.441 16.45,15.16 16.719,40.121 -1.078,58.77 -23.176,24.457 -65.554,27.558 -88.008,8.457 -13.793,-11.621 -16.941,-28.031 -11.078,-43.043 4.242,-10.902 1.149,-21.09 -7.117,-26.891 -1.055,-0.746 -2.101,-1.476 -3.148,-2.203 -8.219,-5.691 -20.532,-6.48 -32.856,-2.094 -17.105,6.106 -33.992,6.27 -43.234,0.407 -6.285,-4.114 -8.133,-10.063 -6.481,-16.844 29.766,-16.07 60.821,-28.871 92.688,-38.25 3.234,5.555 3.125,12.922 -0.676,20.851" /><path
         id="path52"
         style="fill:#f04b52;fill-opacity:1;fill-rule:nonzero;stroke:none"
         d="m 413.184,1009.96 c 20.312,-17.796 51.711,-17.647 73.906,1.32 19.297,16.44 26.762,41.76 22.027,64.04 -3.113,14.84 1.828,30.47 12.785,41.41 1.391,1.4 2.786,2.79 4.176,4.18 10.945,10.95 26.578,15.89 41.41,12.78 22.282,-4.74 47.586,2.74 64.043,22.03 18.965,22.2 19.102,53.6 1.321,73.91 -23.309,26.51 -64.977,26.23 -91.098,1.82 -16.012,-15.02 -22.414,-35.72 -18.516,-54.77 2.864,-13.79 -2.34,-28.97 -13.187,-39.78 -1.379,-1.38 -2.762,-2.76 -4.141,-4.14 -10.82,-10.85 -25.996,-16.05 -39.773,-13.19 -19.074,3.91 -39.754,-2.52 -54.778,-18.52 -24.41,-26.12 -24.66,-67.81 1.825,-91.09" /><path
         id="path54"
         style="fill:#f3655c;fill-opacity:1;fill-rule:nonzero;stroke:none"
         d="m 470.289,1162.55 c 29.106,23.92 32.707,63.97 10.922,83.91 -13.301,12.33 -32.316,14.46 -50.027,8.27 -12.864,-4.5 -25.133,-2.36 -32.278,4.66 -0.914,0.89 -1.82,1.78 -2.722,2.66 -7.079,6.95 -8.305,17.78 -3.418,28.89 6.816,15.41 5.961,29.74 -2.27,36.48 -13.773,10.9 -39.516,-1.36 -59.726,-23.49 -15.524,-17.09 -23.774,-36.89 -17.11,-49.09 5.781,-10.49 21.203,-12.23 38.055,-4.87 11.156,4.89 22.101,3.73 29.043,-3.34 0.879,-0.9 1.765,-1.81 2.664,-2.73 7.039,-7.17 9.066,-19.51 4.598,-32.45 -6.707,-19.32 -3.485,-40.22 12.093,-53.44 17.825,-15.19 47.981,-13.79 70.176,4.54" /><path
         id="path56"
         style="fill:#f3655c;fill-opacity:1;fill-rule:nonzero;stroke:none"
         d="m 255.633,1206.08 c -1.086,1.92 -2.418,3.28 -3.906,4.24 -16.329,-28.6 -29.485,-58.51 -39.508,-89.23 6.957,1.5 15.015,6.39 22.699,14.82 20.52,22.21 28.57,56.85 20.715,70.17" /><path
         id="path58"
         style="fill:#812656;fill-opacity:1;fill-rule:nonzero;stroke:none"
         d="m 907.633,554.047 c -13.328,7.859 -47.985,-0.176 -70.184,-20.703 -8.461,-7.715 -13.375,-15.817 -14.844,-22.793 30.75,10.023 60.684,23.187 89.321,39.531 -0.965,1.512 -2.352,2.859 -4.293,3.965" /><path
         id="path60"
         style="fill:#812656;fill-opacity:1;fill-rule:nonzero;stroke:none"
         d="m 864.051,768.785 c -18.328,-22.203 -19.711,-52.379 -4.528,-70.191 13.207,-15.571 34.098,-18.785 53.45,-12.106 12.937,4.477 25.289,2.442 32.461,-4.601 0.914,-0.899 1.824,-1.785 2.726,-2.672 7.102,-6.957 8.238,-17.895 3.36,-29.055 -7.352,-16.875 -5.625,-32.273 4.875,-38.07 12.218,-6.676 32.015,1.578 49.115,17.094 22.15,20.218 34.39,45.964 23.48,59.754 -6.74,8.246 -21.07,9.074 -36.498,2.281 -11.125,-4.879 -21.957,-3.649 -28.902,3.429 -0.879,0.903 -1.77,1.809 -2.664,2.723 -7.016,7.137 -9.168,19.422 -4.668,32.285 6.191,17.715 4.051,36.75 -8.27,50.039 -19.965,21.801 -60.023,18.207 -83.937,-10.91" /><path
         id="path62"
         style="fill:#a62c5a;fill-opacity:1;fill-rule:nonzero;stroke:none"
         d="m 852.469,925.578 c -15.821,-16.387 -21.656,-39.379 -17.242,-59.785 3.152,-14.762 -1.938,-30.309 -12.829,-41.211 -1.386,-1.394 -2.777,-2.785 -4.171,-4.172 -10.907,-10.887 -26.442,-15.984 -41.207,-12.828 -20.411,4.406 -43.403,-1.414 -59.793,-17.242 -26.868,-25.934 -24.856,-66.985 4.074,-87.617 22.183,-15.864 54.051,-14.36 76.445,3.023 19.473,15.149 27.535,37.879 23.359,58.692 -2.824,13.859 2.243,29.097 13.145,39.972 1.383,1.383 2.766,2.766 4.145,4.149 10.867,10.906 26.121,15.957 39.972,13.144 20.836,-4.195 43.528,3.906 58.696,23.36 17.386,22.386 18.894,54.257 3.027,76.445 -20.629,28.922 -61.692,30.945 -87.621,4.07" /><path
         id="path64"
         style="fill:#f04b52;fill-opacity:1;fill-rule:nonzero;stroke:none"
         d="m 810.043,1413.91 c 4.285,-8.83 1.84,-17.49 -6.445,-23.09 -1.059,-0.72 -2.121,-1.43 -3.192,-2.16 -8.34,-5.71 -21.73,-7.53 -35.07,-4.07 -18.371,4.76 -38.188,2.39 -52.457,-8.18 -23.313,-17.08 -21.957,-50.18 7.047,-70.36 22.148,-15.44 54.156,-16.55 73.957,-3.22 17.273,11.57 21.652,29.66 15.336,46.03 -4.219,10.96 -1.235,21.19 7.054,27.04 1.059,0.74 2.106,1.48 3.149,2.21 8.242,5.73 20.644,6.41 33.035,2.02 18.676,-6.61 37,-6.14 45.492,1.48 4.352,3.95 5.356,9.24 3.895,15.11 -29.723,16.03 -60.739,28.8 -92.563,38.17 -3.246,-5.58 -3.097,-13.01 0.762,-20.98" /><path
         id="path66"
         style="fill:#f04b52;fill-opacity:1;fill-rule:nonzero;stroke:none"
         d="m 691.824,1419.94 c 23.383,-16.42 62.774,-17.3 80.836,-2.14 8.379,6.94 10.418,15.86 7.289,24.62 -33.754,7.67 -68.152,11.72 -102.601,12.08 -0.121,-0.42 -0.18,-0.84 -0.344,-1.26 -4.125,-10.63 0.508,-23.38 14.82,-33.3" /><path
         id="path68"
         style="fill:#f3655c;fill-opacity:1;fill-rule:nonzero;stroke:none"
         d="m 543.641,1415.36 c 1.703,-7.97 -3.496,-18 -13.536,-25.98 -1.269,-1.02 -2.546,-2.05 -3.828,-3.07 -10.019,-8.08 -23.601,-13.12 -35.254,-12.98 -16.117,0.12 -34.105,-7.05 -48.546,-19.79 -23.372,-20.67 -29.364,-49.34 -7.973,-63.83 16.375,-10.96 45.574,-7.71 67.18,8.92 18.8,14.37 26.918,33.87 23.984,49.2 -1.887,10.22 3.469,21.25 13.625,29.48 1.293,1.05 2.582,2.09 3.875,3.12 10.16,8.16 23.941,12.55 36.852,11.42 19.378,-1.79 42.035,4.24 56.687,17.02 16.773,14.65 16.922,33.47 2.391,44.49 -29.446,-2.01 -58.731,-6.66 -87.485,-14.03 -6.703,-7.76 -9.578,-16.19 -7.972,-23.97" /><path
         id="path70"
         style="fill:#c73354;fill-opacity:1;fill-rule:nonzero;stroke:none"
         d="m 964.602,1335.93 c -11.969,-8.95 -4.207,-39.04 20.921,-60.97 19.057,-16.81 41.257,-21.8 50.317,-14 7.75,6.56 5.29,19.02 -2.62,32.01 -5.95,6.65 -12.07,13.19 -18.45,19.58 -0.22,0.22 -0.44,0.44 -0.66,0.66 -6.32,6.3 -12.78,12.36 -19.352,18.24 -11.856,7.22 -23.215,9.93 -30.156,4.48" /><path
         id="path72"
         style="fill:#a62c5a;fill-opacity:1;fill-rule:nonzero;stroke:none"
         d="m 877.57,1086.38 c -27.539,-22.38 -28.75,-66.79 -3.308,-93.419 15.511,-16.324 36.707,-21.789 55.343,-16.902 13.508,3.519 27.364,-1.297 36.696,-11.844 1.187,-1.348 2.383,-2.695 3.558,-4.035 9.254,-10.52 13.071,-25.606 9.7,-40.047 -4.696,-19.996 -0.707,-41.602 11.625,-55.906 20.306,-23.364 53.166,-18.325 71.796,9.539 14.35,21.414 15.82,51.125 3.06,71.785 -11.11,17.914 -29.7,24.82 -47.6,19.703 -11.91,-3.399 -24.827,0.926 -34.042,11.519 -1.164,1.34 -2.343,2.692 -3.519,4.04 -9.285,10.601 -13.508,26.067 -10.797,40.527 4.051,21.67 -2.977,45.57 -20.84,61.77 -20.527,18.59 -50.629,20.48 -71.672,3.27" /><path
         id="path74"
         style="fill:#c73354;fill-opacity:1;fill-rule:nonzero;stroke:none"
         d="m 943.301,1292.69 c 0.762,15.29 -8.481,32.81 -25.528,46.51 -19.613,15.69 -45.16,21.53 -62.32,12.21 -22.375,-12.04 -21.262,-44.96 4.266,-68.5 15.508,-14.36 35.765,-21.02 52.379,-19.36 12.023,1.17 25.136,-4.53 35.043,-14.39 1.265,-1.26 2.519,-2.52 3.785,-3.78 9.855,-9.9 15.547,-23.02 14.383,-35.05 -1.668,-16.61 5.031,-36.89 19.355,-52.38 23.536,-25.54 56.476,-26.65 68.486,-4.26 9.34,17.16 3.48,42.73 -12.2,62.32 -13.73,17.07 -31.18,26.26 -46.509,25.53 -10.171,-0.56 -22.687,5.1 -32.472,14.94 -1.246,1.25 -2.489,2.49 -3.731,3.73 -9.824,9.78 -15.504,22.3 -14.937,32.48" /><path
         id="path76"
         style="fill:#c73354;fill-opacity:1;fill-rule:nonzero;stroke:none"
         d="m 844.465,1228.78 c -13.879,-13 -18.211,-33.27 -12.559,-52.73 4.067,-14.04 0.172,-28.74 -10.015,-38.85 -1.301,-1.29 -2.598,-2.58 -3.903,-3.87 -10.238,-10.14 -25.636,-14.52 -40.586,-10.69 -20.648,5.3 -43.347,0.24 -59.621,-15.68 -26.636,-25.92 -24.832,-70.74 5.996,-95.46 23.59,-18.934 57.621,-18.699 80.157,0.07 19.597,16.34 26.25,41.3 20.543,63.84 -3.821,15.05 0.418,30.52 10.625,40.8 1.296,1.31 2.586,2.61 3.875,3.91 10.156,10.24 24.933,13.99 39.05,9.95 21.235,-6.09 43.368,-0.28 56.016,16.81 14.531,19.73 11.477,48.72 -6.047,69.79 -22.848,27.4 -60.68,33.26 -83.531,12.11" /><path
         id="path78"
         style="fill:#f04b52;fill-opacity:1;fill-rule:nonzero;stroke:none"
         d="m 621.902,1277.8 c 14.45,3.37 29.504,-0.41 40.051,-9.7 1.34,-1.17 2.688,-2.37 4.035,-3.56 10.563,-9.34 15.36,-23.18 11.844,-36.7 -4.875,-18.65 0.586,-39.84 16.906,-55.35 26.641,-25.45 71.035,-24.23 93.418,3.31 17.199,21.06 15.324,51.15 -3.269,71.68 -16.215,17.88 -40.067,24.86 -61.778,20.85 -14.457,-2.72 -29.937,1.53 -40.523,10.8 -1.348,1.17 -2.695,2.34 -4.039,3.51 -10.582,9.21 -14.957,22.17 -11.524,34.06 5.129,17.88 -1.781,36.48 -19.707,47.61 -20.648,12.74 -50.363,11.28 -71.796,-3.06 -27.86,-18.65 -32.915,-51.48 -9.536,-71.81 14.325,-12.35 35.934,-16.34 55.918,-11.64" /><path
         id="path80"
         style="fill:#812656;fill-opacity:1;fill-rule:nonzero;stroke:none"
         d="m 1119.53,1070.9 c -15.17,-18.06 -14.3,-57.45 2.12,-80.834 9.94,-14.312 22.67,-18.949 33.29,-14.816 0.4,0.156 0.8,0.211 1.19,0.328 -0.35,34.462 -4.39,68.862 -12.05,102.622 -8.74,3.09 -17.62,1.03 -24.55,-7.3" /><path
         id="path82"
         style="fill:#812656;fill-opacity:1;fill-rule:nonzero;stroke:none"
         d="m 1107.43,930.969 c -10.68,-14.602 -15.5,-35.168 -13.85,-52.883 1.16,-12.836 -3.35,-26.531 -11.44,-36.664 -1.03,-1.289 -2.08,-2.578 -3.12,-3.871 -8.18,-10.106 -19.17,-15.586 -29.33,-13.653 -14.02,2.727 -31.55,-3.773 -45.49,-19.328 -23.012,-25.48 -25.43,-63.656 -6.552,-78.761 14.432,-11.688 36.512,-6.219 53.812,10.949 15.08,14.988 23.62,34.785 23.57,52.371 -0.09,11.699 4.85,25.351 12.98,35.41 1.03,1.277 2.05,2.559 3.07,3.832 8.02,10.094 18.07,15.184 26.08,13.512 7.71,-1.555 16.04,1.238 23.73,7.836 7.41,28.832 12.08,58.203 14.1,87.734 -11.99,15.504 -32.45,14.192 -47.56,-6.484" /><path
         id="path84"
         style="fill:#a62c5a;fill-opacity:1;fill-rule:nonzero;stroke:none"
         d="m 1081.53,1193.76 c -5.86,-9.24 -5.7,-26.13 0.41,-43.24 4.39,-12.33 3.59,-24.64 -2.09,-32.86 -0.74,-1.04 -1.46,-2.09 -2.21,-3.14 -5.8,-8.26 -15.97,-11.39 -26.88,-7.13 -15.01,5.86 -31.42,2.71 -43.03,-11.08 -19.121,-22.44 -16.007,-64.84 8.44,-88.01 18.64,-17.788 43.59,-17.519 58.76,-1.07 13.24,14.33 16.56,36.11 11.45,56.15 -3.43,13.4 -1.72,26.87 4.02,35.26 0.72,1.07 1.44,2.14 2.15,3.2 5.63,8.33 14.35,10.64 23.21,6.38 7.91,-3.79 15.25,-3.9 20.79,-0.7 -9.37,31.88 -22.16,62.95 -38.22,92.73 -6.76,1.63 -12.69,-0.23 -16.8,-6.49" /><path
         id="path86"
         style="fill:#f3655c;fill-opacity:1;fill-rule:nonzero;stroke:none"
         d="m 436.813,1387.13 c 13.347,-7.88 47.957,0.21 70.183,20.71 8.461,7.71 13.375,15.81 14.848,22.79 -30.754,-10.02 -60.692,-23.19 -89.328,-39.53 0.964,-1.51 2.347,-2.86 4.297,-3.97" /><path
         id="path88"
         style="fill:#812656;fill-opacity:1;fill-rule:nonzero;stroke:none"
         d="m 1088.81,735.102 c 1.09,-1.914 2.42,-3.282 3.9,-4.243 16.33,28.606 29.49,58.508 39.51,89.231 -6.95,-1.492 -15.01,-6.395 -22.7,-14.82 -20.51,-22.211 -28.58,-56.817 -20.71,-70.168" /><path
         id="path90"
         style="fill:#c73354;fill-opacity:1;fill-rule:nonzero;stroke:none"
         d="m 790.004,943.961 c -16.367,20.074 -41.742,27.273 -64.781,21.684 -15.356,-3.723 -31.442,0.945 -42.52,12.023 l -4.223,4.223 c -11.082,11.078 -15.75,27.159 -12.031,42.519 5.586,23.04 -1.613,48.41 -21.687,64.79 -23.082,18.82 -57.164,18.82 -80.657,-0.04 -30.671,-24.62 -32.753,-69.33 -6.039,-96.047 16.356,-16.355 39.446,-21.898 60.547,-16.707 15.27,3.758 31.285,-1.051 42.313,-12.078 l 4.215,-4.215 c 11.023,-11.023 15.836,-27.039 12.082,-42.308 -5.192,-21.102 0.351,-44.192 16.711,-60.551 26.714,-26.711 71.425,-24.621 96.043,6.047 18.859,23.496 18.851,57.578 0.027,80.66" /></g></g></svg>